# Blender 4.1.1
# www.blender.org
g Beard1_Beard1
v -0.012320 -0.020975 0.149155
v 0.000000 -0.013593 0.158302
v -0.039052 0.007080 0.050840
v 0.039052 0.007080 0.050840
v -0.023785 -0.047528 0.141621
v 0.023785 -0.047528 0.141621
v -0.029053 -0.000984 0.146248
v 0.029053 -0.000984 0.146248
v 0.000000 -0.051410 0.159794
v 0.012320 -0.020975 0.149155
v 0.000000 -0.021392 0.153141
v 0.030921 -0.043092 0.128034
v -0.030921 -0.043092 0.128034
v -0.033838 -0.030771 0.135809
v 0.033838 -0.030771 0.135809
v 0.028136 -0.030218 0.152374
v -0.028136 -0.030218 0.152374
v 0.000000 -0.035603 0.159500
v -0.032062 -0.038228 0.120553
v 0.032062 -0.038228 0.120553
v 0.000000 -0.038228 0.120553
v 0.000000 -0.043092 0.128034
vn -0.0000 -0.5519 0.8339
vn -0.0000 -0.0794 0.9968
vn 0.1111 0.2724 0.9558
vn -0.1111 0.2724 0.9558
vn 0.8653 0.1530 0.4774
vn 0.9686 -0.1518 0.1970
vn 0.3176 -0.8032 -0.5039
vn -0.6357 -0.0615 0.7695
vn -0.9686 -0.1518 0.1970
vn -0.4876 -0.8598 0.1519
vn 0.6142 -0.7678 -0.1825
vn 0.4876 -0.8598 0.1519
vn 0.6357 -0.0615 0.7695
vn -0.8653 0.1530 0.4774
vn -0.0000 0.2138 0.9769
vn -0.0000 -0.7349 0.6781
vn -0.6142 -0.7678 -0.1825
vn 0.6434 -0.6742 -0.3626
vn -0.6434 -0.6742 -0.3626
vn -0.3176 -0.8032 -0.5039
vn -0.0000 -0.9022 -0.4314
vn -0.0000 -0.8384 -0.5450
vt 0.000000 0.000000
vt 0.038236 0.032312
vt 0.486773 0.411359
vt 0.007007 0.006032
vt 0.047251 0.040072
vt 0.070690 0.059738
vt 0.204254 0.175832
vt 0.008686 0.007477
vt 0.138844 0.119523
vt 0.111012 0.093813
s 1
f 2/1/1 11/1/2 10/1/3
f 1/1/4 11/1/2 2/1/1
f 8/1/5 15/2/6 4/3/7
f 17/4/8 14/5/9 5/1/10
f 12/6/11 15/2/6 6/1/12
f 16/1/13 8/1/5 10/1/3
f 7/7/14 14/5/9 17/4/8
f 17/1/8 18/1/15 1/1/4
f 16/1/13 9/1/16 6/1/12
f 9/1/16 5/1/10 6/1/12
f 17/8/8 1/1/4 7/9/14
f 5/1/10 14/5/9 13/6/17
f 6/1/12 15/2/6 16/1/13
f 20/10/18 15/2/6 12/6/11
f 1/1/4 18/1/15 11/1/2
f 10/1/3 11/1/2 18/1/15
f 19/10/19 14/5/9 3/3/20
f 16/1/13 15/2/6 8/1/5
f 7/7/14 3/3/20 14/5/9
f 10/1/3 18/1/15 16/1/13
f 17/1/8 9/1/16 18/1/15
f 5/1/10 9/1/16 17/1/8
f 18/1/15 9/1/16 16/1/13
f 4/3/7 15/2/6 20/10/18
f 13/6/17 14/5/9 19/10/19
f 13/6/17 22/1/21 5/1/10
f 12/6/11 6/1/12 22/1/21
f 6/1/12 5/1/10 22/1/21
f 20/10/18 21/1/22 4/3/7
f 3/1/20 4/3/7 21/1/22
f 19/10/19 3/1/20 21/1/22
f 20/10/18 22/1/21 21/1/22
f 20/10/18 12/6/11 22/1/21
f 13/6/17 19/10/19 22/1/21
f 21/1/22 22/1/21 19/10/19
