# Blender 4.1.1
# www.blender.org
g EarSquare_EarSquare
v 0.073365 0.030419 0.047429
v 0.079790 0.120814 0.031121
v 0.079362 0.069791 0.071848
v 0.060037 0.064807 -0.010697
v -0.073365 0.030419 0.047429
v -0.079790 0.120814 0.031121
v -0.079362 0.069791 0.071848
v -0.060037 0.064807 -0.010697
vn 0.9730 -0.1061 -0.2049
vn 0.9697 -0.1084 -0.2190
vn 0.9910 -0.0886 -0.1006
vn 0.9500 -0.1196 -0.2886
vn -0.9730 -0.1061 -0.2049
vn -0.9697 -0.1084 -0.2190
vn -0.9910 -0.0886 -0.1006
vn -0.9500 -0.1196 -0.2886
s 1
f 4//4 2//2 1//1
f 1//1 2//2 3//3
f 8//8 5//5 6//6
f 5//5 7//7 6//6
