# Blender 4.1.1
# www.blender.org
g Nose_Nose
v 0.000000 0.029161 0.163549
v 0.010848 0.059314 0.154410
v 0.010858 0.076006 0.144859
v 0.007641 0.059395 0.177776
v 0.010858 0.076006 0.144859
v 0.000000 0.021043 0.144176
v 0.014270 0.029079 0.149730
v 0.010858 0.076006 0.144859
v 0.007641 0.059395 0.177776
v 0.014270 0.029079 0.149730
v 0.012200 0.043853 0.156931
v -0.000000 0.029161 0.163549
v -0.010848 0.059314 0.154410
v -0.010858 0.076006 0.144859
v -0.007641 0.059395 0.177776
v -0.010858 0.076006 0.144859
v -0.000000 0.021043 0.144176
v -0.014270 0.029079 0.149730
v -0.010858 0.076006 0.144859
v -0.007641 0.059395 0.177776
v -0.014270 0.029079 0.149730
v -0.012200 0.043853 0.156931
vn 0.9864 0.0862 0.1399
vn -0.9864 0.0862 0.1399
s 1
f 10//1 8//1 9//1
f 21//2 20//2 19//2
l 7 6
l 2 3
l 1 2
l 2 11
l 18 17
l 13 14
l 12 13
l 13 22
