# Blender 4.1.1
# www.blender.org
g Scalp_Scalp
v 0.000000 0.220328 0.005458
v 0.063910 0.192251 0.014008
v 0.046668 0.162487 -0.051877
v 0.040513 0.186037 0.129950
v 0.000000 0.194190 0.137408
v 0.000000 0.166613 0.159428
v 0.079790 0.120814 0.031121
v 0.064058 0.155542 0.116042
v 0.045854 0.160927 0.137980
v 0.065905 0.173353 0.069589
v 0.076776 0.144517 0.067717
v 0.049572 0.192015 0.092344
v 0.073108 0.140244 0.000595
v 0.074924 0.155151 0.022804
v 0.064064 0.120814 -0.022744
v 0.071387 0.165937 0.047682
v 0.062086 0.151533 -0.026389
v 0.055882 0.124032 -0.039720
v 0.031497 0.196821 -0.020069
v 0.057587 0.176979 -0.028920
v 0.000000 0.213081 0.099261
v 0.030352 0.208801 0.051586
v 0.060037 0.064807 -0.010697
v 0.022107 0.056643 -0.040808
v 0.044807 0.059556 -0.035925
v 0.022107 0.083670 -0.049718
v 0.044807 0.086583 -0.044835
v -0.063910 0.192251 0.014008
v -0.046668 0.162487 -0.051877
v -0.040513 0.186037 0.129950
v 0.000000 0.161530 -0.064892
v -0.079790 0.120814 0.031121
v -0.064058 0.155542 0.116042
v -0.045854 0.160927 0.137980
v -0.065905 0.173353 0.069589
v -0.076776 0.144517 0.067717
v -0.049572 0.192015 0.092344
v 0.000000 0.081878 -0.052895
v -0.073108 0.140244 0.000595
v -0.074924 0.155151 0.022804
v -0.064064 0.120814 -0.022744
v -0.071387 0.165937 0.047682
v -0.062086 0.151533 -0.026389
v -0.055882 0.124032 -0.039720
v 0.000000 0.198565 -0.036219
v -0.031497 0.196821 -0.020069
v -0.057587 0.176979 -0.028920
v -0.030352 0.208801 0.051586
v -0.060037 0.064807 -0.010697
v -0.022107 0.056643 -0.040808
v 0.000000 0.054851 -0.043986
v -0.044807 0.059556 -0.035925
v -0.022107 0.083670 -0.049718
v -0.044807 0.086583 -0.044835
vn -0.0000 0.9796 -0.2011
vn 0.7589 0.6381 -0.1299
vn 0.5368 0.2786 -0.7964
vn 0.5536 0.6372 0.5362
vn -0.0000 0.7772 0.6292
vn -0.0000 0.5484 0.8362
vn 0.9871 0.0210 -0.1589
vn 0.8415 0.4488 0.3007
vn 0.6247 0.3552 0.6953
vn 0.8844 0.4378 0.1615
vn 0.9556 0.2810 0.0890
vn 0.6740 0.7032 0.2263
vn 0.9612 0.0646 -0.2682
vn 0.9739 0.2056 -0.0962
vn 0.9193 -0.0933 -0.3823
vn 0.9436 0.3248 0.0642
vn 0.9165 0.1001 -0.3873
vn 0.8025 -0.0794 -0.5913
vn 0.3833 0.8081 -0.4473
vn 0.7400 0.4932 -0.4574
vn -0.0000 0.9661 0.2583
vn 0.3968 0.9149 0.0748
vn 0.8967 -0.1506 -0.4162
vn 0.1978 -0.3069 -0.9310
vn 0.5993 -0.2506 -0.7603
vn 0.2011 -0.2157 -0.9555
vn 0.5630 -0.1927 -0.8037
vn -0.7589 0.6381 -0.1299
vn -0.5368 0.2786 -0.7964
vn -0.5536 0.6372 0.5362
vn -0.0000 0.2462 -0.9692
vn -0.9871 0.0210 -0.1589
vn -0.8415 0.4488 0.3007
vn -0.6247 0.3552 0.6953
vn -0.8844 0.4378 0.1615
vn -0.9556 0.2810 0.0890
vn -0.6740 0.7032 0.2263
vn -0.0000 -0.2341 -0.9722
vn -0.9612 0.0646 -0.2682
vn -0.9739 0.2056 -0.0962
vn -0.9193 -0.0933 -0.3823
vn -0.9436 0.3248 0.0642
vn -0.9165 0.1001 -0.3873
vn -0.8025 -0.0794 -0.5913
vn -0.0000 0.7782 -0.6281
vn -0.3833 0.8081 -0.4473
vn -0.7400 0.4932 -0.4574
vn -0.3968 0.9149 0.0748
vn -0.8967 -0.1506 -0.4162
vn -0.1978 -0.3069 -0.9310
vn -0.0000 -0.3131 -0.9497
vn -0.5993 -0.2506 -0.7603
vn -0.2011 -0.2157 -0.9555
vn -0.5630 -0.1927 -0.8037
s 1
f 38//38 31//31 26//26
f 26//26 31//31 3//3
f 20//20 3//3 19//19
f 27//27 3//3 18//18
f 45//45 1//1 19//19
f 10//10 11//11 16//16
f 8//8 4//4 9//9
f 9//9 4//4 6//6
f 5//5 6//6 4//4
f 7//7 23//23 13//13
f 2//2 13//13 17//17
f 4//4 8//8 10//10
f 12//12 4//4 10//10
f 14//14 2//2 16//16
f 2//2 12//12 10//10
f 2//2 1//1 22//22
f 10//10 8//8 11//11
f 26//26 3//3 27//27
f 14//14 7//7 13//13
f 18//18 3//3 17//17
f 2//2 14//14 13//13
f 7//7 14//14 11//11
f 23//23 15//15 13//13
f 23//23 27//27 15//15
f 11//11 14//14 16//16
f 2//2 10//10 16//16
f 13//13 15//15 17//17
f 20//20 2//2 17//17
f 15//15 18//18 17//17
f 15//15 27//27 18//18
f 45//45 19//19 3//3
f 1//1 2//2 19//19
f 31//31 45//45 3//3
f 2//2 20//20 19//19
f 3//3 20//20 17//17
f 4//4 12//12 21//21
f 22//22 1//1 21//21
f 5//5 4//4 21//21
f 12//12 22//22 21//21
f 12//12 2//2 22//22
f 23//23 25//25 27//27
f 26//26 24//24 51//51
f 25//25 24//24 26//26
f 27//27 25//25 26//26
f 38//38 26//26 51//51
f 38//38 53//53 31//31
f 53//53 29//29 31//31
f 47//47 46//46 29//29
f 54//54 44//44 29//29
f 45//45 46//46 1//1
f 35//35 42//42 36//36
f 33//33 34//34 30//30
f 34//34 6//6 30//30
f 5//5 30//30 6//6
f 32//32 39//39 49//49
f 28//28 43//43 39//39
f 30//30 35//35 33//33
f 37//37 35//35 30//30
f 40//40 42//42 28//28
f 28//28 35//35 37//37
f 28//28 48//48 1//1
f 35//35 36//36 33//33
f 53//53 54//54 29//29
f 40//40 39//39 32//32
f 44//44 43//43 29//29
f 28//28 39//39 40//40
f 32//32 36//36 40//40
f 49//49 39//39 41//41
f 49//49 41//41 54//54
f 36//36 42//42 40//40
f 28//28 42//42 35//35
f 39//39 43//43 41//41
f 47//47 43//43 28//28
f 41//41 43//43 44//44
f 41//41 44//44 54//54
f 45//45 29//29 46//46
f 1//1 46//46 28//28
f 31//31 29//29 45//45
f 28//28 46//46 47//47
f 29//29 43//43 47//47
f 30//30 21//21 37//37
f 48//48 21//21 1//1
f 5//5 21//21 30//30
f 37//37 21//21 48//48
f 37//37 48//48 28//28
f 49//49 54//54 52//52
f 53//53 51//51 50//50
f 52//52 53//53 50//50
f 54//54 53//53 52//52
f 38//38 51//51 53//53
