# Blender 4.1.1
# www.blender.org
g EyeIris_EyeIris
v -0.005930 0.010270 0.020540
v -0.003069 0.005316 0.018171
v -0.011859 0.000000 0.020540
v -0.006139 0.000000 0.018171
v -0.005930 -0.010270 0.020540
v -0.003069 -0.005316 0.018171
v 0.005929 -0.010270 0.020540
v 0.003069 -0.005316 0.018171
v 0.011859 0.000000 0.020540
v 0.006139 0.000000 0.018171
v 0.005929 0.010270 0.020540
v 0.003069 0.005316 0.018171
v -0.007042 0.012198 0.017660
v -0.014085 0.000000 0.017660
v -0.007042 -0.012198 0.017660
v 0.007042 -0.012198 0.017660
v 0.014084 0.000000 0.017660
v 0.007042 0.012198 0.017660
vn -0.2113 0.3660 0.9063
vn 0.1913 -0.3314 0.9239
vn -0.4226 -0.0000 0.9063
vn 0.3827 -0.0000 0.9239
vn -0.2113 -0.3660 0.9063
vn 0.1913 0.3314 0.9239
vn 0.2113 -0.3660 0.9063
vn -0.1913 0.3314 0.9239
vn 0.4226 -0.0000 0.9063
vn -0.3827 -0.0000 0.9239
vn 0.2113 0.3660 0.9063
vn -0.1913 -0.3314 0.9239
vn -0.3956 0.6852 0.6115
vn -0.7913 -0.0000 0.6115
vn -0.3956 -0.6852 0.6115
vn 0.3956 -0.6852 0.6115
vn 0.7913 -0.0000 0.6115
vn 0.3956 0.6852 0.6115
vt 0.666667 0.083333
vt 0.666667 0.166667
vt 0.500000 0.166667
vt 0.500000 0.083333
vt 0.333333 0.166667
vt 0.333333 0.083333
vt 0.166667 0.166667
vt 0.166667 0.083333
vt 0.000000 0.166667
vt 0.000000 0.083333
vt 1.000000 0.083333
vt 1.000000 0.166667
vt 0.833333 0.166667
vt 0.833333 0.083333
s 1
f 2/1/2 1/2/1 3/3/3 4/4/4
f 4/4/4 3/3/3 5/5/5 6/6/6
f 6/6/6 5/5/5 7/7/7 8/8/8
f 8/8/8 7/7/7 9/9/9 10/10/10
f 10/11/10 9/12/9 11/13/11 12/14/12
f 12/14/12 11/13/11 1/2/1 2/1/2
f 1/2/1 11/13/11 18/13/18 13/2/13
f 11/13/11 9/12/9 17/12/17 18/13/18
f 3/3/3 1/2/1 13/2/13 14/3/14
f 9/9/9 7/7/7 16/7/16 17/9/17
f 7/7/7 5/5/5 15/5/15 16/7/16
f 5/5/5 3/3/3 14/3/14 15/5/15
