# Blender 4.1.1
# www.blender.org
g Hair3_Hair3
v 0.000000 0.274332 -0.022855
v -0.110821 0.227080 0.005693
v -0.074676 0.167074 -0.090951
v -0.068654 0.215729 0.159418
v 0.000000 0.227211 0.179853
v 0.000000 0.167581 -0.115810
v 0.110821 0.227080 0.005693
v 0.074676 0.167074 -0.090951
v 0.068654 0.215729 0.159418
v 0.075927 0.118082 0.094091
v -0.075927 0.118082 0.094091
v 0.000000 0.166090 0.158576
v 0.121632 0.117388 0.025195
v -0.121632 0.117388 0.025195
v 0.063181 0.155173 0.115734
v -0.063181 0.155173 0.115734
v -0.045232 0.160603 0.137267
v 0.045232 0.160603 0.137267
v -0.111883 0.193318 0.118737
v 0.111883 0.193318 0.118737
v -0.119978 0.117350 0.078979
v 0.119978 0.117350 0.078979
v 0.124775 0.151810 0.089959
v -0.124775 0.151810 0.089959
v -0.096523 0.240309 0.092715
v 0.096523 0.240309 0.092715
v 0.040545 0.082793 -0.100330
v -0.040545 0.082793 -0.100330
v 0.129661 0.156852 -0.018218
v -0.129661 0.156852 -0.018218
v -0.131407 0.156015 0.017818
v 0.131407 0.156015 0.017818
v 0.114980 0.117457 -0.051609
v -0.114980 0.117457 -0.051609
v -0.129546 0.181281 0.049898
v 0.129546 0.181281 0.049898
v 0.121504 0.158713 -0.052336
v -0.121504 0.158713 -0.052336
v 0.097021 0.121951 -0.067952
v -0.097021 0.121951 -0.067952
v 0.000000 0.241067 -0.075515
v 0.058033 0.243259 -0.047519
v -0.058033 0.243259 -0.047519
v 0.096329 0.198805 -0.051578
v -0.096329 0.198805 -0.051578
v 0.060037 0.050737 0.012700
v -0.060037 0.050737 0.012700
v 0.036433 0.032370 -0.082773
v -0.036433 0.032370 -0.082773
v 0.000000 0.030323 -0.088310
v 0.073731 0.040097 -0.060091
v -0.073731 0.040097 -0.060091
v 0.000000 0.086666 -0.112893
v 0.081250 0.080439 -0.083900
v -0.081250 0.080439 -0.083900
v 0.038423 0.024807 0.006303
v -0.038423 0.024807 0.006303
v 0.014148 0.016643 -0.023808
v -0.014148 0.016643 -0.023808
v 0.000000 0.014851 -0.026986
v 0.028676 0.019556 -0.018925
v -0.028676 0.019556 -0.018925
v 0.074939 0.078100 0.093935
v -0.074939 0.078100 0.093935
v -0.077334 0.073030 0.069952
v 0.077334 0.073030 0.069952
v 0.114610 0.091422 0.046493
v -0.114610 0.091422 0.046493
v -0.070522 0.065183 0.040677
v 0.070522 0.065183 0.040677
v -0.102152 0.073361 0.018056
v 0.102152 0.073361 0.018056
v -0.112417 0.091608 0.078590
v 0.112417 0.091608 0.078590
v 0.062088 0.258759 0.118697
v 0.000000 0.272416 0.121264
v -0.062088 0.258759 0.118697
v -0.081963 0.257549 0.042385
v 0.081963 0.257549 0.042385
v 0.000000 0.283328 0.056832
v -0.045537 0.274592 0.050963
v 0.045537 0.274592 0.050963
v 0.100454 0.085177 -0.054872
v 0.118896 0.115751 -0.019537
v -0.100454 0.085177 -0.054872
v -0.118896 0.115751 -0.019537
v 0.063469 0.038643 -0.015454
v -0.063469 0.038643 -0.015454
v 0.079219 0.052920 -0.021913
v -0.079219 0.052920 -0.021913
v 0.062644 0.241576 0.148607
v 0.000000 0.254785 0.168911
v -0.062644 0.241576 0.148607
v -0.097281 0.227568 0.120595
v 0.097281 0.227568 0.120595
v -0.117469 0.213720 0.081084
v 0.117469 0.213720 0.081084
vn -0.0000 -0.2047 -0.9788
vn -0.3258 -0.2237 -0.9186
vn -0.0000 0.2247 -0.9744
vn -0.4846 0.2287 -0.8443
vn -0.6470 0.5069 -0.5696
vn -0.4443 0.7460 -0.4961
vn -0.5797 -0.2983 -0.7583
vn -0.6757 -0.0310 -0.7365
vn -0.3121 0.9498 -0.0197
vn -0.0000 0.9993 0.0381
vn -0.0000 0.9446 -0.3282
vn -0.8082 -0.2558 0.5304
vn -0.3462 -0.2300 0.9095
vn -0.8187 -0.2144 0.5327
vn -0.0000 0.6685 -0.7437
vn 0.3258 -0.2237 -0.9186
vn 0.4846 0.2287 -0.8443
vn 0.7720 0.5990 -0.2126
vn 0.4443 0.7460 -0.4961
vn 0.3121 0.9498 -0.0197
vn -0.7768 -0.0792 0.6248
vn -0.9845 0.1711 0.0395
vn 0.8187 -0.2144 0.5327
vn 0.4200 -0.4842 0.7675
vn 0.3462 -0.2300 0.9095
vn -0.4200 -0.4842 0.7675
vn -0.4736 -0.4942 0.7290
vn -0.5182 -0.0132 0.8552
vn -0.0000 -0.4071 0.9134
vn -0.0000 0.0524 0.9986
vn 0.4736 -0.4942 0.7290
vn 0.5182 -0.0132 0.8552
vn 0.8082 -0.2558 0.5304
vn 0.9995 -0.0222 -0.0230
vn 0.9905 0.0355 -0.1329
vn 0.7126 -0.6983 0.0680
vn 0.8565 -0.4349 -0.2782
vn 0.9379 -0.3352 -0.0894
vn -0.7720 0.5990 -0.2126
vn -0.8470 0.1302 -0.5154
vn -0.9905 0.0355 -0.1329
vn 0.6973 0.6952 0.1744
vn 0.9060 0.3959 0.1494
vn 0.7768 -0.0792 0.6248
vn 0.9574 -0.2880 -0.0200
vn 0.9845 0.1711 0.0395
vn -0.9995 -0.0222 -0.0230
vn -0.7466 0.4979 0.4412
vn -0.9060 0.3959 0.1494
vn -0.5478 0.8316 -0.0911
vn 0.5478 0.8316 -0.0911
vn -0.9574 -0.2880 -0.0200
vn 0.5797 -0.2983 -0.7583
vn 0.6299 -0.7104 -0.3139
vn 0.6470 0.5069 -0.5696
vn 0.8470 0.1302 -0.5154
vn 0.8718 -0.2274 -0.4338
vn 0.6757 -0.0310 -0.7365
vn -0.8718 -0.2274 -0.4338
vn -0.9379 -0.3352 -0.0894
vn -0.8565 -0.4349 -0.2782
vn 0.7223 -0.6849 0.0963
vn -0.0000 -0.7370 -0.6759
vn -0.3142 -0.7145 -0.6251
vn -0.6299 -0.7104 -0.3139
vn 0.3142 -0.7145 -0.6251
vn -0.5734 -0.8058 0.1477
vn -0.6219 -0.7559 0.2047
vn -0.3643 -0.9270 -0.0893
vn 0.6219 -0.7559 0.2047
vn 0.3643 -0.9270 -0.0893
vn -0.0000 -0.9771 -0.2129
vn -0.2135 -0.9593 -0.1850
vn 0.2135 -0.9593 -0.1850
vn 0.5734 -0.8058 0.1477
vn 0.5557 -0.7779 0.2932
vn -0.7223 -0.6849 0.0963
vn -0.5557 -0.7779 0.2932
vn -0.7126 -0.6983 0.0680
vn -0.6896 -0.5195 0.5046
vn -0.4779 -0.5315 0.6994
vn 0.4405 -0.8792 0.1818
vn 0.6896 -0.5195 0.5046
vn 0.4779 -0.5315 0.6994
vn -0.3866 -0.8965 0.2165
vn 0.8333 -0.5509 0.0469
vn -0.8333 -0.5509 0.0469
vn -0.4405 -0.8792 0.1818
vn 0.3866 -0.8965 0.2165
vn 0.4233 0.8590 0.2879
vn -0.4233 0.8590 0.2879
vn -0.6973 0.6952 0.1744
vn -0.0000 0.9657 0.2598
vn -0.0000 0.6946 0.7194
vn -0.4895 0.6192 0.6140
vn 0.4895 0.6192 0.6140
vn 0.7466 0.4979 0.4412
vt 0.000000 0.000000
s 1
f 53/1/1 28/1/2 6/1/3
f 28/1/2 3/1/4 6/1/3
f 45/1/5 43/1/6 3/1/4
f 55/1/7 40/1/8 3/1/4
f 81/1/9 80/1/10 1/1/11
f 21/1/12 11/1/13 24/1/14
f 41/1/15 43/1/6 1/1/11
f 27/1/16 53/1/1 6/1/3
f 8/1/17 27/1/16 6/1/3
f 7/1/18 42/1/19 1/1/11
f 82/1/20 1/1/11 80/1/10
f 41/1/15 1/1/11 42/1/19
f 19/1/21 35/1/22 24/1/14
f 23/1/23 15/1/24 10/1/25
f 16/1/26 17/1/27 4/1/28
f 17/1/27 12/1/29 4/1/28
f 5/1/30 4/1/28 12/1/29
f 12/1/29 18/1/31 9/1/32
f 9/1/32 5/1/30 12/1/29
f 23/1/23 10/1/25 22/1/33
f 32/1/34 29/1/35 7/1/18
f 72/1/36 83/1/37 84/1/38
f 2/1/39 38/1/40 30/1/41
f 26/1/42 97/1/43 7/1/18
f 4/1/28 19/1/21 16/1/26
f 9/1/32 18/1/31 15/1/24
f 15/1/24 20/1/44 9/1/32
f 13/1/45 23/1/23 22/1/33
f 36/1/46 20/1/44 23/1/23
f 31/1/47 35/1/22 2/1/39
f 16/1/26 24/1/14 11/1/13
f 94/1/48 96/1/49 19/1/21
f 2/1/39 78/1/50 1/1/11
f 7/1/18 79/1/51 26/1/42
f 19/1/21 24/1/14 16/1/26
f 20/1/44 15/1/24 23/1/23
f 32/1/34 23/1/23 13/1/45
f 21/1/12 24/1/14 14/1/52
f 54/1/53 27/1/16 8/1/17
f 28/1/2 55/1/7 3/1/4
f 54/1/53 83/1/37 51/1/54
f 13/1/45 84/1/38 29/1/35
f 44/1/55 37/1/56 8/1/17
f 31/1/47 30/1/41 14/1/52
f 40/1/8 38/1/40 3/1/4
f 2/1/39 30/1/41 31/1/47
f 14/1/52 24/1/14 31/1/47
f 13/1/45 29/1/35 32/1/34
f 32/1/34 36/1/46 23/1/23
f 33/1/57 37/1/56 29/1/35
f 54/1/53 39/1/58 33/1/57
f 34/1/59 86/1/60 30/1/41
f 55/1/7 85/1/61 34/1/59
f 24/1/14 35/1/22 31/1/47
f 96/1/49 35/1/22 19/1/21
f 7/1/18 36/1/46 32/1/34
f 36/1/46 97/1/43 20/1/44
f 39/1/58 37/1/56 33/1/57
f 29/1/35 37/1/56 7/1/18
f 30/1/41 38/1/40 34/1/59
f 45/1/5 38/1/40 2/1/39
f 8/1/17 37/1/56 39/1/58
f 8/1/17 39/1/58 54/1/53
f 34/1/59 38/1/40 40/1/8
f 34/1/59 40/1/8 55/1/7
f 8/1/17 41/1/15 42/1/19
f 44/1/55 42/1/19 7/1/18
f 41/1/15 3/1/4 43/1/6
f 1/1/11 43/1/6 2/1/39
f 6/1/3 3/1/4 41/1/15
f 6/1/3 41/1/15 8/1/17
f 8/1/17 42/1/19 44/1/55
f 7/1/18 37/1/56 44/1/55
f 2/1/39 43/1/6 45/1/5
f 3/1/4 38/1/40 45/1/5
f 72/1/36 89/1/62 83/1/37
f 28/1/2 50/1/63 49/1/64
f 52/1/65 28/1/2 49/1/64
f 55/1/7 28/1/2 52/1/65
f 53/1/1 50/1/63 28/1/2
f 27/1/16 50/1/63 53/1/1
f 50/1/63 27/1/16 48/1/66
f 48/1/66 27/1/16 51/1/54
f 27/1/16 54/1/53 51/1/54
f 57/1/67 88/1/68 62/1/69
f 51/1/54 87/1/70 61/1/71
f 48/1/66 60/1/72 50/1/63
f 52/1/65 59/1/73 62/1/69
f 51/1/54 58/1/74 48/1/66
f 49/1/64 60/1/72 59/1/73
f 56/1/75 87/1/70 46/1/76
f 90/1/77 88/1/68 47/1/78
f 61/1/71 58/1/74 51/1/54
f 58/1/74 60/1/72 48/1/66
f 50/1/63 60/1/72 49/1/64
f 49/1/64 59/1/73 52/1/65
f 86/1/60 71/1/79 14/1/52
f 72/1/36 84/1/38 13/1/45
f 11/1/13 73/1/80 64/1/81
f 66/1/82 74/1/83 63/1/84
f 69/1/85 71/1/79 47/1/78
f 74/1/83 67/1/86 22/1/33
f 66/1/82 72/1/36 67/1/86
f 22/1/33 67/1/86 13/1/45
f 10/1/25 74/1/83 22/1/33
f 83/1/37 89/1/62 51/1/54
f 73/1/80 68/1/87 65/1/88
f 21/1/12 14/1/52 68/1/87
f 65/1/88 71/1/79 69/1/85
f 68/1/87 14/1/52 71/1/79
f 46/1/76 72/1/36 70/1/89
f 67/1/86 72/1/36 13/1/45
f 68/1/87 71/1/79 65/1/88
f 70/1/89 72/1/36 66/1/82
f 64/1/81 73/1/80 65/1/88
f 21/1/12 73/1/80 11/1/13
f 63/1/84 74/1/83 10/1/25
f 85/1/61 90/1/77 71/1/79
f 21/1/12 68/1/87 73/1/80
f 66/1/82 67/1/86 74/1/83
f 79/1/51 75/1/90 26/1/42
f 77/1/91 78/1/50 25/1/92
f 81/1/9 78/1/50 77/1/91
f 25/1/92 78/1/50 2/1/39
f 79/1/51 82/1/20 75/1/90
f 1/1/11 79/1/51 7/1/18
f 81/1/9 76/1/93 80/1/10
f 1/1/11 78/1/50 81/1/9
f 76/1/93 82/1/20 80/1/10
f 1/1/11 82/1/20 79/1/51
f 33/1/57 84/1/38 83/1/37
f 33/1/57 83/1/37 54/1/53
f 89/1/62 72/1/36 46/1/76
f 86/1/60 85/1/61 71/1/79
f 85/1/61 55/1/7 52/1/65
f 30/1/41 86/1/60 14/1/52
f 29/1/35 84/1/38 33/1/57
f 85/1/61 86/1/60 34/1/59
f 61/1/71 87/1/70 56/1/75
f 89/1/62 87/1/70 51/1/54
f 47/1/78 88/1/68 57/1/67
f 62/1/69 88/1/68 52/1/65
f 46/1/76 87/1/70 89/1/62
f 85/1/61 52/1/65 90/1/77
f 52/1/65 88/1/68 90/1/77
f 90/1/77 47/1/78 71/1/79
f 4/1/28 92/1/94 93/1/95
f 92/1/94 9/1/32 91/1/96
f 92/1/94 77/1/91 93/1/95
f 75/1/90 92/1/94 91/1/96
f 75/1/90 91/1/96 95/1/97 26/1/42
f 91/1/96 9/1/32 95/1/97
f 4/1/28 93/1/95 94/1/48
f 25/1/92 94/1/48 93/1/95 77/1/91
f 96/1/49 94/1/48 25/1/92
f 19/1/21 4/1/28 94/1/48
f 20/1/44 95/1/97 9/1/32
f 97/1/43 26/1/42 95/1/97
f 2/1/39 35/1/22 96/1/49
f 2/1/39 96/1/49 25/1/92
f 7/1/18 97/1/43 36/1/46
f 20/1/44 97/1/43 95/1/97
f 5/1/30 9/1/32 92/1/94
f 5/1/30 92/1/94 4/1/28
f 76/1/93 77/1/91 92/1/94
f 76/1/93 92/1/94 75/1/90
f 75/1/90 82/1/20 76/1/93
f 77/1/91 76/1/93 81/1/9
