# Blender 4.1.1
# www.blender.org
g Nose_Nose
v 0.000000 0.102852 0.164584
v 0.000000 0.029161 0.163549
v 0.010848 0.059314 0.154410
v 0.010858 0.076006 0.144859
v 0.007641 0.059395 0.177776
v 0.012170 0.043840 0.156948
v 0.010858 0.076006 0.144859
v 0.000000 0.021043 0.144176
v 0.014270 0.029079 0.149730
v 0.010858 0.076006 0.144859
v 0.007641 0.059395 0.177776
v 0.014270 0.029079 0.149730
vn 0.2933 0.1791 0.9391
vn 0.9864 0.0862 0.1399
s 1
f 3//1 2//1 6//1
f 12//2 10//2 11//2
l 9 8
l 1 5
l 3 4
