# Blender 4.1.1
# www.blender.org
g Stache4Lips_Stache4.001
v -0.012005 0.012324 0.155552
v 0.013264 0.019643 0.164960
v -0.013264 0.019643 0.164960
v 0.013261 0.016515 0.166714
v -0.013261 0.016515 0.166714
v 0.000000 0.015503 0.164827
v 0.000000 0.021286 0.163296
v 0.000000 0.009424 0.163229
v 0.012005 0.012324 0.165552
v -0.012005 0.012324 0.165552
v -0.013700 0.018902 0.164991
v 0.013700 0.018902 0.164991
v 0.000000 0.013947 0.165061
v 0.012005 0.012324 0.155552
v 0.012912 0.021771 0.161185
v -0.012912 0.021771 0.161185
vn 0.1552 0.2528 0.9550
vn -0.1552 0.2528 0.9550
vn -0.1247 -0.2522 0.9596
vn 0.1247 -0.2522 0.9596
vn -0.1197 -0.2318 0.9654
vn 0.1197 -0.2318 0.9654
vn 0.0003 0.7359 0.6771
vn -0.0469 0.8720 0.4872
vn 0.0077 0.6800 0.7331
vn 0.1740 0.6375 0.7506
vn -0.1740 0.6375 0.7506
vn -0.0077 0.6800 0.7331
vn -0.0003 0.7359 0.6771
vn 0.0469 0.8720 0.4872
vt 0.000000 0.000000
vt 0.000563 0.000485
vt 0.000580 0.000499
s 0
f 6/1/1 7/1/1 5/1/1
f 6/1/2 4/1/2 7/1/2
f 8/1/3 9/1/3 6/1/3
f 8/1/4 6/1/4 10/1/4
f 9/1/5 4/1/5 6/1/5
f 6/1/6 5/1/6 10/1/6
s 1
f 7/1/7 16/2/8 3/3/9
f 5/1/10 7/1/7 3/3/9
f 4/1/11 2/1/12 7/1/13
f 2/1/12 15/1/14 7/1/13
l 12 13
l 14 9
l 10 1
l 13 8
l 13 11
