# Blender 4.1.1
# www.blender.org
g Stache4Mouth_Stache4Mouth
v -0.021231 0.016700 0.159979
v 0.029053 -0.000984 0.146248
v -0.029053 -0.000984 0.146248
v 0.021231 0.016700 0.159979
v -0.019054 0.013316 0.162822
v 0.019054 0.013316 0.162822
v -0.032597 0.003950 0.147614
v 0.032597 0.003950 0.147614
v -0.021231 0.016700 0.148899
v 0.021231 0.016700 0.148899
v -0.029918 0.006179 0.137614
v 0.029918 0.006179 0.137614
v -0.017271 0.019085 0.157181
vn -0.9298 0.1169 0.3490
vn -0.7946 0.4974 0.3482
vn 0.2685 0.9608 -0.0688
vn 0.9298 0.1169 0.3490
vn -0.2685 0.9608 -0.0687
vn 0.8357 0.2970 0.4619
vn -0.7082 0.7059 -0.0113
vn 0.3293 0.9255 0.1870
vn 0.7457 0.6661 -0.0137
vn -0.3293 0.9255 0.1871
vn -0.5159 0.8566 -0.0000
vt 0.000597 0.000514
vt -0.000000 -0.000000
vt 0.000061 0.000053
s 1
f 5/1/1 1/2/2 7/3/3
f 6/2/4 8/2/5 4/2/6
f 7/3/3 9/2/7 11/3/8
f 8/2/5 10/2/9 4/2/6
f 12/2/10 10/2/9 8/2/5
f 1/2/2 9/2/7 7/3/3
f 1/2/2 13/2/11 9/2/7
l 2 8
l 3 7
