# Blender 4.1.1
# www.blender.org
g Dagger1_Dagger1
v -0.006250 0.050000 0.010825
v 0.000000 -0.250000 0.000000
v 0.006250 0.050000 0.010825
v 0.012500 0.050000 -0.000000
v 0.006250 0.050000 -0.010825
v -0.006250 0.050000 -0.010825
v -0.012500 0.050000 0.000000
v 0.010825 -0.050000 -0.006250
v 0.010825 -0.050000 0.006250
v 0.000000 -0.050000 0.012500
v -0.010825 -0.050000 0.006250
v -0.010825 -0.050000 -0.006250
v -0.000000 -0.050000 -0.012500
v -0.005413 -0.150000 0.012500
v 0.000000 -0.150000 0.025000
v 0.005413 -0.150000 0.012500
v 0.005413 -0.150000 -0.012500
v -0.000000 -0.150000 -0.025000
v -0.005413 -0.150000 -0.012500
v 0.000000 0.060000 -0.000000
v 0.000000 -0.075000 0.025000
v -0.000000 -0.075000 -0.025000
v -0.005413 -0.075000 -0.012500
v -0.005413 -0.075000 0.012500
v 0.005413 -0.075000 -0.012500
v 0.005413 -0.075000 0.012500
v 0.000000 -0.150000 0.025000
v 0.000000 -0.250000 0.000000
v -0.000000 -0.150000 -0.025000
v -0.005413 -0.075000 0.000000
v 0.005413 -0.075000 0.000000
vn 0.9167 -0.0457 0.3970
vn 0.9968 -0.0805 -0.0000
vn 0.9770 -0.0397 0.2096
vn 0.9770 -0.0397 -0.2096
vn 0.9167 -0.0457 -0.3970
vn -0.9167 -0.0457 -0.3970
vn -0.9968 -0.0805 -0.0000
vn -0.9770 -0.0397 -0.2096
vn -0.9770 -0.0397 0.2096
vn -0.9167 -0.0457 0.3970
vn -0.0000 1.0000 -0.0000
vn 0.7987 0.3869 -0.4609
vn 0.0003 0.3869 -0.9221
vn 0.9183 -0.0322 -0.3946
vn 0.0003 0.1149 -0.9934
vn -0.9182 -0.0322 -0.3948
vn -0.7986 0.3869 -0.4611
vn -0.9182 -0.0322 0.3947
vn -0.7986 0.3869 0.4610
vn -0.0001 0.1148 0.9934
vn -0.0001 0.3868 0.9222
vn 0.9182 -0.0322 0.3948
vn 0.7985 0.3868 0.4612
vn -0.9521 0.0033 0.3057
vn -0.9963 -0.0260 0.0816
vn 0.9521 0.0032 0.3056
vn 0.9971 -0.0191 -0.0742
vn 0.9522 0.0032 -0.3056
vn -0.9522 0.0032 -0.3055
vn -0.0000 0.1345 0.9909
vn -0.0000 0.1345 -0.9909
vt 1.000000 0.875000
vt 0.833333 1.000000
vt 0.833333 0.875000
vt 0.666667 1.000000
vt 0.666667 0.875000
vt 0.500000 1.000000
vt 0.500000 0.875000
vt 0.333333 1.000000
vt 0.333333 0.875000
vt 0.166667 1.000000
vt 0.166667 0.875000
vt -0.000000 1.000000
vt -0.000000 0.875000
vt 0.750000 0.250000
vt 0.957846 0.130000
vt 0.750000 0.010000
vt 0.666667 0.750000
vt 0.500000 0.750000
vt 0.500000 0.500000
vt 0.333333 0.750000
vt 0.333333 0.500000
vt 0.166667 0.750000
vt 0.166667 0.500000
vt -0.000000 0.750000
vt -0.000000 0.500000
vt 1.000000 0.750000
vt 0.833333 0.750000
vt 0.833333 0.500000
vt 0.666667 0.500000
vt 0.250000 0.750000
vt 0.750000 0.750000
vt 0.957846 0.370000
vt 0.542154 0.370000
vt 0.542154 0.130000
vt 0.750000 0.490000
vt 1.000000 0.500000
s 1
f 27/1/1 28/2/2 16/3/3
f 16/3/3 28/4/2 17/5/4
f 17/5/4 28/6/2 29/7/5
f 18/7/6 2/8/7 19/9/8
f 19/9/8 2/10/7 14/11/9
f 14/11/9 2/12/7 15/13/10
f 20/14/11 4/15/12 5/16/13
f 8/17/14 13/18/15 5/19/13
f 13/18/15 12/20/16 6/21/17
f 12/20/16 11/22/18 7/23/19
f 11/22/18 10/24/20 1/25/21
f 10/26/20 9/27/22 3/28/23
f 9/27/22 8/17/14 4/29/12
f 14/11/9 24/22/24 30/30/25
f 24/22/24 14/11/9 15/13/10
f 27/1/1 16/3/3 26/27/26
f 31/31/27 17/5/4 25/17/28
f 25/17/28 17/5/4 29/7/5
f 18/7/6 19/9/8 23/20/29
f 3/32/23 4/15/12 20/14/11
f 7/33/19 20/14/11 6/34/17
f 1/35/21 3/32/23 20/14/11
f 6/34/17 20/14/11 5/16/13
f 7/33/19 1/35/21 20/14/11
f 21/26/30 26/27/26 9/27/22
f 8/17/14 31/31/27 25/17/28
f 8/17/14 25/17/28 22/18/31
f 22/18/31 23/20/29 12/20/16
f 12/20/16 23/20/29 30/30/25
f 11/22/18 24/22/24 21/24/30
f 22/18/31 18/7/6 23/20/29
f 22/18/31 25/17/28 29/7/5
f 21/26/30 27/1/1 26/27/26
f 21/24/30 24/22/24 15/13/10
f 6/21/17 12/20/16 7/23/19
f 7/23/19 11/22/18 1/25/21
f 1/36/21 10/26/20 3/28/23
f 3/28/23 9/27/22 4/29/12
f 4/29/12 8/17/14 5/19/13
f 5/19/13 13/18/15 6/21/17
f 13/18/15 22/18/31 12/20/16
f 13/18/15 8/17/14 22/18/31
f 10/26/20 21/26/30 9/27/22
f 10/24/20 11/22/18 21/24/30
f 11/22/18 12/20/16 30/30/25
f 24/22/24 11/22/18 30/30/25
f 23/20/29 19/9/8 30/30/25
f 19/9/8 14/11/9 30/30/25
f 9/27/22 26/27/26 31/31/27
f 8/17/14 9/27/22 31/31/27
f 16/3/3 17/5/4 31/31/27
f 26/27/26 16/3/3 31/31/27
