# Blender 4.1.1
# www.blender.org
g SpiralStart_SpiralStart
v 0.000000 1.500000 0.600000
v 0.000000 2.000000 0.600000
v -0.250000 1.250000 0.433013
v -0.250000 1.750000 0.433013
v -0.346410 1.000000 0.200000
v -0.346410 1.500000 0.200000
v -0.300000 0.750000 0.000000
v -0.300000 1.250000 0.000000
v -0.173205 0.500000 -0.100000
v -0.173205 1.000000 -0.100000
v -0.050000 0.250000 -0.086603
v -0.050000 0.750000 -0.086603
v 0.000000 0.000000 0.000000
v 0.000000 0.500000 0.000000
v 0.550000 2.750000 -0.952628
v 0.550000 3.250000 -0.952628
v 0.866025 2.500000 -0.500000
v 0.866025 3.000000 -0.500000
v 0.900000 2.250000 0.000000
v 0.900000 2.750000 0.000000
v 0.692820 2.000000 0.400000
v 0.692820 2.500000 0.400000
v 0.350000 1.750000 0.606218
v 0.350000 2.250000 0.606218
v 0.000000 3.500000 -1.200000
v 0.000000 3.000000 -1.200000
vn -0.4102 -0.0000 0.9120
vn -0.1773 -0.0000 0.9842
vn -0.8529 -0.0000 0.5221
vn -0.6729 -0.0000 0.7397
vn -0.9967 -0.0000 -0.0807
vn -0.9674 -0.0000 0.2531
vn -0.7210 -0.0000 -0.6929
vn -0.9391 -0.0000 -0.3437
vn -0.0209 -0.0000 -0.9998
vn -0.5286 -0.0000 -0.8489
vn 0.7988 -0.0000 -0.6015
vn 0.2119 -0.0000 -0.9773
vn 0.8660 -0.0000 -0.5000
vn 0.6911 -0.0000 -0.7228
vn 0.5806 -0.0000 -0.8142
vn 0.9661 -0.0000 -0.2583
vn 0.9139 -0.0000 -0.4059
vn 0.9582 -0.0000 0.2859
vn 0.9931 -0.0000 0.1174
vn 0.6617 -0.0000 0.7497
vn 0.7922 -0.0000 0.6102
vn 0.1560 -0.0000 0.9878
vn 0.3629 -0.0000 0.9318
vn 0.4102 -0.0000 -0.9120
vt 1.000000 0.500000
vt 1.000000 1.000000
vt 0.916667 1.000000
vt 0.916667 0.500000
vt 0.833333 1.000000
vt 0.833333 0.500000
vt 0.750000 1.000000
vt 0.750000 0.500000
vt 0.666667 1.000000
vt 0.666667 0.500000
vt 0.583333 1.000000
vt 0.583333 0.500000
vt 0.500000 1.000000
vt 0.500000 0.500000
vt 0.416667 0.500000
vt 0.000000 0.000000
vt 0.416667 1.000000
vt 0.333333 1.000000
vt 0.333333 0.500000
vt 0.250000 1.000000
vt 0.250000 0.500000
vt 0.166667 1.000000
vt 0.166667 0.500000
vt 0.083333 1.000000
vt 0.083333 0.500000
vt 0.000000 1.000000
vt 0.000000 0.500000
s 1
f 1/1/1 2/2/2 4/3/4 3/4/3
f 3/4/3 4/3/4 6/5/6 5/6/5
f 5/6/5 6/5/6 8/7/8 7/8/7
f 7/8/7 8/7/8 10/9/10 9/10/9
f 9/10/9 10/9/10 12/11/12 11/12/11
f 11/12/11 12/11/12 14/13/13 13/14/13
f 15/15/14 26/16/24 25/16/24 16/17/15
f 15/15/14 16/17/15 18/18/17 17/19/16
f 17/19/16 18/18/17 20/20/19 19/21/18
f 19/21/18 20/20/19 22/22/21 21/23/20
f 21/23/20 22/22/21 24/24/23 23/25/22
f 23/25/22 24/24/23 2/26/2 1/27/1
