# Blender 4.1.1
# www.blender.org
g Brows3_Brows3
v -0.075784 0.085675 0.107161
v 0.075784 0.085675 0.107161
v 0.057495 0.106195 0.155485
v -0.057495 0.106195 0.155485
v -0.008940 0.103356 0.163473
v 0.008940 0.103356 0.163473
v 0.058282 0.116995 0.155485
v -0.058282 0.116995 0.155485
v -0.008940 0.107841 0.163473
v 0.008940 0.107841 0.163473
v 0.054137 0.107015 0.162107
v -0.054137 0.107015 0.162107
v -0.012298 0.105610 0.165638
v 0.012298 0.105610 0.165638
v 0.055023 0.115293 0.162107
v -0.055023 0.115293 0.162107
vn 0.3232 0.4159 0.8500
vn -0.7568 0.5695 -0.3209
vn 0.7839 0.0449 -0.6192
vn -0.6649 -0.6864 -0.2946
vn -0.7018 0.6424 -0.3080
vn 0.7568 0.5695 -0.3209
vn -0.7839 0.0448 -0.6192
vn -0.3232 0.4159 0.8500
vn 0.7018 0.6424 -0.3080
vn 0.6649 -0.6864 -0.2946
vn -0.4449 -0.5101 0.7361
vn -0.4094 0.4715 0.7810
vn -0.2250 -0.0896 0.9702
vn 0.4449 -0.5101 0.7361
vn 0.4094 0.4715 0.7810
vn 0.2250 -0.0896 0.9702
vt 0.000000 0.000000
s 1
f 1/1/1 8/1/2 4/1/3
f 6/1/4 10/1/5 7/1/6 3/1/7
f 3/1/7 7/1/6 2/1/8
f 4/1/3 8/1/2 9/1/9 5/1/10
f 1/1/1 12/1/11 16/1/12
f 14/1/13 11/1/14 15/1/15
f 11/1/14 2/1/8 15/1/15
f 12/1/11 13/1/16 16/1/12
f 3/1/7 2/1/8 11/1/14
f 2/1/8 7/1/6 15/1/15
f 4/1/3 5/1/10 13/1/16 12/1/11
f 9/1/9 8/1/2 16/1/12 13/1/16
f 5/1/10 9/1/9 13/1/16
f 6/1/4 3/1/7 11/1/14 14/1/13
f 1/1/1 4/1/3 12/1/11
f 7/1/6 10/1/5 14/1/13 15/1/15
f 8/1/2 1/1/1 16/1/12
f 10/1/5 6/1/4 14/1/13
