# Blender 4.1.1
# www.blender.org
g Hair2Scalp_Hair2Scalp
v 0.000000 0.269736 0.000856
v -0.063910 0.192251 0.014008
v -0.054339 0.150059 -0.030687
v 0.028237 0.203376 0.133741
v 0.000000 0.222490 0.133966
v 0.063910 0.192251 0.014008
v 0.054339 0.150059 -0.030687
v 0.040513 0.186037 0.129950
v -0.048850 0.189603 0.096288
v 0.048850 0.189603 0.096288
v 0.000000 0.247856 -0.057682
v 0.057106 0.210620 -0.035909
v -0.057106 0.210620 -0.035909
v 0.057587 0.176979 -0.028920
v -0.057587 0.176979 -0.028920
v 0.040854 0.221086 0.119844
v 0.000000 0.253808 0.106901
v -0.040854 0.221086 0.119844
v 0.050202 0.243028 0.008766
v -0.050202 0.243028 0.008766
v -0.036170 0.222581 -0.066322
v 0.036170 0.222581 -0.066322
v -0.040513 0.186037 0.129950
v -0.025694 0.179002 0.140994
v 0.025694 0.179002 0.140994
v 0.000000 0.166064 0.158592
v -0.045422 0.160570 0.137152
v 0.045422 0.160570 0.137152
v -0.028237 0.203376 0.133741
v 0.000000 0.182687 0.147258
v 0.032339 0.258706 0.047350
v -0.032339 0.258706 0.047350
v 0.000000 0.211990 -0.091861
v 0.000000 0.270110 0.056433
v -0.032782 0.248910 -0.020249
v 0.032782 0.248910 -0.020249
v 0.054727 0.210870 0.055786
v -0.054727 0.210870 0.055786
v -0.049120 0.235666 0.060294
v 0.049120 0.235666 0.060294
v -0.034510 0.246356 0.093798
v 0.034510 0.246356 0.093798
v -0.046517 0.120432 -0.041499
v 0.000000 0.119953 -0.054409
v 0.046517 0.120432 -0.041499
v -0.045154 0.180163 -0.090337
v 0.045154 0.180163 -0.090337
v 0.000000 0.171706 -0.107174
v -0.039535 0.127072 -0.083016
v 0.039535 0.127072 -0.083016
v 0.000000 0.130129 -0.105795
v -0.036752 0.079951 -0.053844
v 0.000000 0.079472 -0.054941
v 0.036752 0.079951 -0.053844
v -0.030235 0.086591 -0.073994
v 0.030235 0.086591 -0.073994
v 0.000000 0.089648 -0.091390
v 0.000000 0.042339 -0.080690
v 0.052462 0.155255 -0.057846
v -0.052462 0.155255 -0.057846
v 0.055343 0.178341 -0.055188
v -0.055343 0.178341 -0.055188
vn -0.9231 0.3108 -0.2266
vn -0.9805 -0.0149 -0.1958
vn -0.9933 -0.0469 -0.1057
vn -0.7164 0.4077 0.5661
vn -0.9741 0.0855 0.2093
vn -0.6719 0.2105 0.7101
vn -0.5590 0.8259 0.0733
vn -0.0000 0.9887 0.1498
vn -0.0000 0.9841 -0.1776
vn -0.0000 0.8449 -0.5349
vn -0.5535 0.7827 -0.2849
vn 0.7980 0.5975 -0.0787
vn 0.5535 0.7827 -0.2849
vn 0.9741 0.0855 0.2093
vn 0.7164 0.4077 0.5661
vn 0.6719 0.2105 0.7101
vn 0.5590 0.8259 0.0733
vn 0.5860 0.6038 -0.5403
vn -0.9770 0.1569 0.1443
vn -0.9825 0.1857 0.0159
vn 0.9770 0.1569 0.1443
vn 0.9825 0.1857 0.0159
vn 0.9231 0.3108 -0.2266
vn 0.9933 -0.0469 -0.1057
vn -0.7044 0.1508 -0.6936
vn -0.5860 0.6038 -0.5403
vn -0.7980 0.5975 -0.0787
vn -0.0000 0.5395 -0.8420
vn 0.0297 -0.0131 0.9995
vn -0.0000 0.5083 0.8612
vn -0.0000 0.8374 0.5466
vn -0.3912 0.3008 0.8698
vn 0.3912 0.3008 0.8698
vn 0.9020 0.4110 0.1323
vn 0.6004 0.7201 0.3477
vn -0.9020 0.4110 0.1323
vn 0.7044 0.1508 -0.6936
vn -0.0000 0.1375 -0.9905
vn 0.7673 -0.2367 -0.5961
vn 0.4896 0.0559 -0.8702
vn 0.7131 -0.3369 -0.6149
vn -0.4505 0.3074 0.8382
vn -0.3987 0.2996 0.8668
vn -0.0000 0.4296 0.9030
vn -0.0000 0.4831 0.8756
vn 0.3987 0.2996 0.8668
vn 0.4505 0.3074 0.8382
vn -0.6004 0.7201 0.3477
vn -0.9668 -0.1586 -0.2002
vn -0.9814 -0.1642 -0.0992
vn 0.9630 -0.1380 -0.2314
vn -0.0000 -0.2134 -0.9770
vn -0.7673 -0.2367 -0.5961
vn -0.8430 -0.0648 -0.5339
vn -0.4896 0.0559 -0.8702
vn -0.7131 -0.3369 -0.6149
vn -0.0171 -0.5697 0.8216
vn -0.0000 0.0612 -0.9981
vn -0.0000 -0.2868 -0.9580
vn -0.2585 -0.2242 0.9396
vn 0.0171 -0.5697 0.8216
vn 0.9702 -0.2166 -0.1085
vn 0.8146 -0.0535 -0.5775
vn -0.0297 -0.0131 0.9995
vn 0.2585 -0.2242 0.9396
vn 0.9805 -0.0149 -0.1958
vn 0.9948 -0.0624 -0.0807
vt 0.000000 0.000000
s 1
f 13/1/1 62/1/2 15/1/3
f 18/1/4 9/1/5 23/1/6
f 32/1/7 34/1/8 1/1/9
f 11/1/10 35/1/11 1/1/9
f 19/1/12 36/1/13 1/1/9
f 10/1/14 16/1/15 8/1/16
f 34/1/8 31/1/17 1/1/9
f 36/1/13 22/1/18 11/1/10
f 9/1/5 38/1/19 2/1/20
f 19/1/12 37/1/21 6/1/22
f 36/1/13 12/1/23 22/1/18
f 14/1/24 12/1/23 6/1/22
f 46/1/25 13/1/1 21/1/26
f 20/1/27 13/1/1 2/1/20
f 33/1/28 21/1/26 11/1/10
s 0
f 44/1/29 52/1/29 53/1/29
s 1
f 2/1/20 13/1/1 15/1/3
f 18/1/4 5/1/30 17/1/31
f 5/1/30 16/1/15 17/1/31
f 10/1/14 37/1/21 16/1/15
f 20/1/27 32/1/7 1/1/9
f 18/1/4 29/1/32 5/1/30
f 4/1/33 16/1/15 5/1/30
f 40/1/34 42/1/35 16/1/15
f 6/1/22 12/1/23 19/1/12
f 39/1/36 38/1/19 18/1/4
f 20/1/27 35/1/11 13/1/1
f 21/1/26 13/1/1 35/1/11
f 33/1/28 47/1/37 48/1/38
f 50/1/39 54/1/40 56/1/41
f 27/1/42 24/1/43 23/1/6
f 30/1/44 24/1/43 26/1/45
f 25/1/46 28/1/47 8/1/16
f 25/1/46 30/1/44 26/1/45
f 26/1/45 28/1/47 25/1/46
f 4/1/33 30/1/44 25/1/46
f 26/1/45 24/1/43 27/1/42
f 30/1/44 5/1/30 29/1/32
f 8/1/16 4/1/33 25/1/46
f 8/1/16 16/1/15 4/1/33
f 23/1/6 24/1/43 29/1/32
f 23/1/6 29/1/32 18/1/4
f 4/1/33 5/1/30 30/1/44
f 30/1/44 29/1/32 24/1/43
f 1/1/9 31/1/17 19/1/12
f 17/1/31 42/1/35 34/1/8
f 39/1/36 32/1/7 20/1/27
f 17/1/31 34/1/8 41/1/48
f 11/1/10 22/1/18 33/1/28
f 15/1/3 60/1/49 3/1/50
f 34/1/8 32/1/7 41/1/48
f 42/1/35 31/1/17 34/1/8
f 1/1/9 35/1/11 20/1/27
f 21/1/26 35/1/11 11/1/10
f 12/1/23 36/1/13 19/1/12
f 1/1/9 36/1/13 11/1/10
f 40/1/34 37/1/21 19/1/12
f 6/1/22 37/1/21 10/1/14
f 2/1/20 38/1/19 20/1/27
f 18/1/4 38/1/19 9/1/5
f 20/1/27 38/1/19 39/1/36
f 39/1/36 41/1/48 32/1/7
f 16/1/15 37/1/21 40/1/34
f 19/1/12 31/1/17 40/1/34
f 18/1/4 41/1/48 39/1/36
f 18/1/4 17/1/31 41/1/48
f 31/1/17 42/1/35 40/1/34
f 16/1/15 42/1/35 17/1/31
f 59/1/51 50/1/39 47/1/37
f 46/1/25 51/1/52 49/1/53
f 3/1/50 60/1/49 43/1/54
f 33/1/28 46/1/25 21/1/26
f 49/1/53 52/1/55 43/1/54
f 51/1/52 55/1/56 49/1/53
f 47/1/37 51/1/52 48/1/38
s 0
f 53/1/57 58/1/57 54/1/57
s 1
f 54/1/40 58/1/58 56/1/41
f 55/1/56 58/1/58 52/1/55
f 57/1/59 58/1/58 55/1/56
s 0
f 44/1/60 54/1/60 45/1/60
s 1
f 51/1/52 56/1/41 57/1/59
f 56/1/41 58/1/58 57/1/59
s 0
f 52/1/61 58/1/61 53/1/61
s 1
f 22/1/18 12/1/23 47/1/37
f 22/1/18 47/1/37 33/1/28
f 48/1/38 46/1/25 33/1/28
f 48/1/38 51/1/52 46/1/25
f 50/1/39 51/1/52 47/1/37
f 57/1/59 55/1/56 51/1/52
f 50/1/39 56/1/41 51/1/52
s 0
f 7/1/62 45/1/62 59/1/62
s 1
f 49/1/53 43/1/54 60/1/49
f 55/1/56 52/1/55 49/1/53
f 45/1/63 54/1/40 50/1/39
s 0
f 53/1/64 54/1/64 44/1/64
f 43/1/65 52/1/65 44/1/65
s 1
f 12/1/23 61/1/66 47/1/37
f 61/1/66 59/1/51 47/1/37
f 50/1/39 59/1/51 45/1/63
f 7/1/67 59/1/51 14/1/24
f 46/1/25 49/1/53 60/1/49
f 62/1/2 60/1/49 15/1/3
f 14/1/24 59/1/51 61/1/66
f 14/1/24 61/1/66 12/1/23
f 46/1/25 60/1/49 62/1/2
f 46/1/25 62/1/2 13/1/1
