# Blender 4.1.1
# www.blender.org
g Beard3_Beard3
v -0.012320 -0.020975 0.149155
v 0.000000 -0.013593 0.158302
v -0.055615 0.007080 0.050840
v 0.055615 0.007080 0.050840
v -0.027829 -0.068412 0.128358
v 0.027829 -0.068412 0.128358
v -0.029053 -0.000984 0.146248
v 0.029053 -0.000984 0.146248
v 0.000000 -0.088015 0.156045
v 0.012320 -0.020975 0.149155
v 0.000000 -0.021392 0.153141
v 0.038789 -0.040234 0.089991
v -0.038789 -0.040234 0.089991
v -0.043100 -0.024729 0.135809
v 0.043100 -0.024729 0.135809
v 0.027013 -0.051426 0.150154
v -0.027013 -0.051426 0.150154
v 0.000000 -0.062706 0.160421
v -0.048597 -0.032181 0.110790
v 0.048597 -0.032181 0.110790
v 0.000000 -0.045881 0.075775
v 0.000000 -0.072235 0.116652
v 0.000000 -0.033813 0.159786
v -0.029604 -0.030556 0.148614
v 0.029604 -0.030556 0.148614
v -0.040460 -0.047841 0.132633
v 0.040460 -0.047841 0.132633
vn -0.0000 -0.5519 0.8339
vn -0.0000 -0.0398 0.9992
vn 0.2250 0.2240 0.9483
vn -0.2250 0.2240 0.9483
vn 0.6822 0.2536 0.6858
vn 0.8827 0.0900 0.4612
vn 0.6008 -0.4579 -0.6553
vn -0.6266 -0.2303 0.7446
vn -0.8772 -0.3786 0.2952
vn -0.6436 -0.7622 -0.0700
vn 0.4906 0.0734 0.8683
vn -0.4906 0.0734 0.8683
vn -0.8827 0.0900 0.4612
vn -0.0000 0.2262 0.9741
vn 0.6266 -0.2303 0.7446
vn -0.0000 -0.8591 0.5119
vn 0.6436 -0.7622 -0.0700
vn -0.0000 -0.8831 -0.4692
vn -0.6822 0.2536 0.6858
vn -0.9675 -0.2516 0.0243
vn 0.8772 -0.3786 0.2952
vn -0.6008 -0.4579 -0.6553
vn -0.0000 -0.0941 0.9956
vn 0.9675 -0.2516 0.0243
vn -0.6053 -0.6687 -0.4317
vn 0.6053 -0.6687 -0.4317
vn -0.0000 -0.7120 -0.7022
vt 0.000000 0.000000
vt 0.038236 0.032312
vt 0.486773 0.411359
vt -0.005540 -0.004638
vt 0.027110 0.022992
vt 0.000189 0.000160
vt 0.013065 0.011244
vt 0.047251 0.040072
vt 0.138844 0.119523
vt 0.111012 0.093813
vt 0.021938 0.018539
vt 0.204254 0.175832
vt 0.070690 0.059738
s 1
f 2/1/1 11/1/2 10/1/3
f 1/1/4 11/1/2 2/1/1
f 8/1/5 15/2/6 4/3/7
f 17/4/8 26/5/9 5/1/10
f 25/6/11 8/1/5 10/1/3
f 24/7/12 14/8/13 17/4/8
f 23/1/14 1/1/4 24/1/12
f 16/1/15 9/1/16 6/1/17
f 9/1/16 22/1/18 6/1/17
f 24/7/12 1/1/4 7/9/19
f 26/5/9 19/10/20 5/1/10
f 16/1/15 27/11/21 15/2/6
f 11/1/2 23/1/14 10/1/3
f 19/10/20 14/8/13 3/3/22
f 25/6/11 15/2/6 8/1/5
f 7/12/19 3/3/22 14/8/13
f 17/1/8 9/1/16 18/1/23
f 5/1/10 9/1/16 17/1/8
f 18/1/23 9/1/16 16/1/15
f 4/3/7 15/2/6 20/10/24
f 13/13/25 5/1/10 19/10/20
f 12/13/26 21/1/27 4/3/7
f 19/10/20 3/3/22 13/13/25
f 5/1/10 13/13/25 22/1/18
f 22/1/18 21/1/27 12/13/26
f 5/1/10 22/1/18 9/1/16
f 6/1/17 22/1/18 12/13/26
f 3/3/22 21/1/27 13/13/25
f 22/1/18 13/13/25 21/1/27
f 20/10/24 12/13/26 4/3/7
f 21/1/27 3/3/22 4/3/7
f 12/13/26 20/10/24 6/1/17
f 20/10/24 27/11/21 6/1/17
f 25/6/11 10/1/3 23/1/14
f 24/1/12 18/1/23 23/1/14
f 7/12/19 14/8/13 24/7/12
f 1/1/4 23/1/14 11/1/2
f 18/1/23 25/6/11 23/1/14
f 16/1/15 15/2/6 25/6/11
f 17/1/8 18/1/23 24/1/12
f 16/1/15 25/6/11 18/1/23
f 14/8/13 19/10/20 26/5/9
f 14/8/13 26/5/9 17/4/8
f 15/2/6 27/11/21 20/10/24
f 6/1/17 27/11/21 16/1/15
