# Blender 4.1.1
# www.blender.org
g Beard1Chin_Beard1Chin
v -0.023785 -0.047528 0.141621
v 0.023785 -0.047528 0.141621
v 0.000000 -0.051410 0.159794
v 0.030921 -0.043092 0.128034
v -0.030921 -0.043092 0.128034
v -0.033838 -0.030771 0.135809
v 0.033838 -0.030771 0.135809
v 0.028136 -0.030218 0.152374
v -0.028136 -0.030218 0.152374
v 0.000000 -0.035603 0.159500
v -0.032062 -0.038228 0.120553
v 0.032062 -0.038228 0.120553
v 0.000000 -0.038228 0.120553
v 0.000000 -0.043092 0.128034
vn -0.6896 -0.4135 0.5945
vn -0.8937 -0.3732 0.2493
vn -0.4876 -0.8598 0.1519
vn 0.6142 -0.7678 -0.1825
vn 0.8937 -0.3732 0.2493
vn 0.4876 -0.8598 0.1519
vn 0.6896 -0.4135 0.5945
vn -0.0000 -0.7349 0.6781
vn -0.6142 -0.7678 -0.1825
vn 0.5276 -0.7467 -0.4051
vn -0.0000 0.0186 0.9998
vn -0.5276 -0.7467 -0.4051
vn -0.0000 -0.9022 -0.4314
vn -0.0000 -0.8384 -0.5451
vt 0.007007 0.006032
vt 0.047251 0.040072
vt 0.000000 0.000000
vt 0.070690 0.059738
vt 0.038236 0.032312
vt 0.111012 0.093813
s 1
f 9/1/1 6/2/2 1/3/3
f 4/4/4 7/5/5 2/3/6
f 8/3/7 3/3/8 2/3/6
f 3/3/8 1/3/3 2/3/6
f 1/3/3 6/2/2 5/4/9
f 2/3/6 7/5/5 8/3/7
f 12/6/10 7/5/5 4/4/4
f 9/3/1 3/3/8 10/3/11
f 1/3/3 3/3/8 9/3/1
f 10/3/11 3/3/8 8/3/7
f 5/4/9 6/2/2 11/6/12
f 5/4/9 14/3/13 1/3/3
f 4/4/4 2/3/6 14/3/13
f 2/3/6 1/3/3 14/3/13
f 12/6/10 14/3/13 13/3/14
f 12/6/10 4/4/4 14/3/13
f 5/4/9 11/6/12 14/3/13
f 13/3/14 14/3/13 11/6/12
