# Blender 4.1.1
# www.blender.org
g Stache4_Stache4
v 0.000000 0.029161 0.158847
v -0.029053 -0.000984 0.146248
v 0.029053 -0.000984 0.146248
v 0.000000 0.013947 0.165061
v 0.013700 0.018902 0.164991
v -0.013700 0.018902 0.164991
v 0.009521 0.032541 0.154404
v -0.009521 0.032541 0.154404
v -0.012005 0.012324 0.165552
v 0.012005 0.012324 0.165552
v 0.000000 0.009424 0.163229
v 0.000000 0.021286 0.163296
v -0.021231 0.016700 0.159979
v 0.021231 0.016700 0.159979
v 0.000000 0.015503 0.164827
v -0.013261 0.016515 0.166714
v 0.013261 0.016515 0.166714
v -0.019054 0.013316 0.162822
v 0.019054 0.013316 0.162822
v -0.032597 0.003950 0.147614
v 0.032597 0.003950 0.147614
v -0.013264 0.019643 0.164960
v 0.013264 0.019643 0.164960
v -0.012005 0.012324 0.155552
v 0.012005 0.012324 0.155552
v -0.021231 0.016700 0.148899
v 0.021231 0.016700 0.148899
v -0.029918 0.006179 0.137614
v 0.029918 0.006179 0.137614
v -0.017271 0.019085 0.157181
v 0.017271 0.019085 0.157181
v 0.012912 0.021771 0.161185
v -0.012912 0.021771 0.161185
vn -0.6870 0.4818 0.5440
vn -0.7201 0.5600 0.4097
vn 0.2685 0.9608 -0.0688
vn 0.3807 -0.3513 0.8554
vn -0.3123 0.6775 0.6659
vn -0.6533 0.7287 0.2052
vn -0.0000 0.6305 0.7762
vn 0.3638 0.6452 0.6719
vn -0.3638 0.6452 0.6719
vn 0.7201 0.5600 0.4097
vn 0.4082 0.6301 0.6605
vn 0.6870 0.4818 0.5440
vn -0.0000 0.5594 0.8289
vn 0.4724 0.6935 0.5439
vn -0.3580 -0.6184 0.6996
vn -0.2685 0.9608 -0.0687
vn -0.4082 0.6301 0.6605
vn -0.3807 -0.3513 0.8554
vn 0.3580 -0.6184 0.6996
vn -0.4724 0.6935 0.5439
vn 0.6533 0.7287 0.2052
vn 0.3123 0.6775 0.6659
vn -0.3926 -0.9183 -0.0498
vn 0.3926 -0.9183 -0.0498
vn -0.7413 0.6694 0.0482
vn 0.3293 0.9255 0.1870
vn 0.7413 0.6694 0.0482
vn 0.1197 -0.2318 0.9654
vn -0.1197 -0.2318 0.9654
vn 0.1247 -0.2522 0.9596
vn -0.1247 -0.2522 0.9596
vn -0.1552 0.2528 0.9550
vn 0.1552 0.2528 0.9550
vn -0.3293 0.9255 0.1871
vt 0.000597 0.000514
vt -0.000000 -0.000000
vt 0.000061 0.000053
vt 0.000580 0.000499
vt 0.000018 0.000016
vt 0.000563 0.000485
s 1
f 18/1/1 13/2/2 20/3/3
s 0
f 10/2/4 19/2/4 17/2/4
s 1
f 22/4/5 30/2/6 13/2/2
f 1/2/7 7/2/8 8/2/9
f 14/2/10 17/2/11 19/2/12
f 12/2/13 32/2/14 1/2/7
s 0
f 9/2/15 18/5/15 20/3/15
s 1
f 19/2/12 21/2/16 14/2/10
f 18/5/1 16/2/17 13/2/2
s 0
f 16/2/18 18/5/18 9/2/18
f 21/2/19 19/2/19 10/2/19
s 1
f 16/2/17 22/4/5 13/2/2
f 12/2/13 33/6/20 22/4/5
f 32/2/14 31/2/21 7/2/8
f 17/2/11 14/2/10 23/2/22
s 0
f 10/2/23 25/2/23 29/2/23 21/2/23
f 20/3/24 28/3/24 24/2/24 9/2/24
s 1
f 20/3/3 26/2/25 28/3/26
f 21/2/16 27/2/27 14/2/10
f 31/2/21 27/2/27 7/2/8
f 26/2/25 30/2/6 8/2/9
s 0
f 15/2/28 16/2/28 9/2/28
f 10/2/29 17/2/29 15/2/29
f 11/2/30 15/2/30 9/2/30
f 11/2/31 10/2/31 15/2/31
f 15/2/32 17/2/32 12/2/32
f 15/2/33 12/2/33 16/2/33
s 1
f 16/2/17 12/2/13 22/4/5
f 17/2/11 23/2/22 12/2/13
f 29/2/34 27/2/27 21/2/16
f 13/2/2 26/2/25 20/3/3
f 13/2/2 30/2/6 26/2/25
f 33/6/20 30/2/6 22/4/5
f 14/2/10 27/2/27 31/2/21
f 14/2/10 31/2/21 23/2/22
f 7/2/8 1/2/7 32/2/14
f 23/2/22 31/2/21 32/2/14
f 23/2/22 32/2/14 12/2/13
f 8/2/9 33/6/20 1/2/7
f 8/2/9 30/2/6 33/6/20
f 1/2/7 33/6/20 12/2/13
l 3 5
l 4 6
l 4 11
l 2 20
l 3 21
l 2 6
l 5 4
