# Blender 4.1.1
# www.blender.org
g RightEar_RightEar
v -0.067261 0.045345 0.048013
v -0.069405 0.081128 0.023218
v -0.077466 0.087384 0.040978
v -0.076193 0.042558 0.049426
v -0.093531 0.080692 0.014405
v -0.090731 0.090636 0.040436
v -0.079738 0.030390 0.039776
v -0.090149 0.061086 0.014488
v -0.085139 0.039066 0.029178
v -0.077288 0.054279 0.050936
v -0.066883 0.056820 0.027732
vn 0.8172 -0.3378 0.4670
vn 0.7406 0.4979 -0.4513
vn 0.4546 0.7602 0.4641
vn 0.2728 -0.4408 0.8551
vn 0.3059 0.5283 -0.7921
vn 0.1488 0.9634 0.2231
vn 0.7982 -0.4385 -0.4130
vn 0.4060 -0.1751 -0.8969
vn 0.5957 -0.4923 -0.6346
vn 0.3730 0.1810 0.9100
vn 0.8492 -0.2450 -0.4678
s 1
f 2//2 3//3 1//1
f 3//3 2//2 5//5 6//6
f 3//3 6//6 10//10
f 1//1 10//10 4//4
f 3//3 10//10 1//1
f 5//5 2//2 8//8
f 2//2 11//11 8//8
f 9//9 11//11 1//1
f 7//7 9//9 1//1
f 1//1 4//4 7//7
f 8//8 11//11 9//9
f 1//1 11//11 2//2
