# Blender 4.1.1
# www.blender.org
g Head_Head
v 0.000000 0.220328 0.005458
v 0.063910 0.192251 0.014008
v 0.046668 0.162487 -0.051877
v 0.040513 0.186037 0.129950
v 0.000000 0.194190 0.137408
v 0.044760 0.049829 0.139270
v -0.000000 0.161530 -0.064892
v -0.063910 0.192251 0.014008
v -0.046668 0.162487 -0.051877
v -0.040513 0.186037 0.129950
v -0.075927 0.118082 0.094091
v -0.044760 0.049829 0.139270
v 0.057418 -0.017019 0.050840
v 0.075927 0.118082 0.094091
v 0.075784 0.085675 0.107161
v -0.075784 0.085675 0.107161
v 0.023785 -0.039756 0.141149
v 0.053834 0.009883 0.115877
v -0.053834 0.009883 0.115877
v -0.057495 0.106195 0.155485
v 0.057495 0.106195 0.155485
v 0.000000 0.102852 0.164584
v 0.000000 0.029161 0.163549
v 0.000000 0.166613 0.159428
v 0.008940 0.103356 0.163473
v -0.008940 0.103356 0.163473
v 0.020409 0.084852 0.134511
v -0.020409 0.084852 0.134511
v 0.051527 0.086463 0.129275
v -0.051527 0.086463 0.129275
v 0.076005 0.053199 0.108081
v -0.076005 0.053199 0.108081
v 0.029053 -0.000984 0.146248
v -0.029053 -0.000984 0.146248
v 0.000000 -0.032116 0.147934
v 0.012320 -0.020975 0.149155
v 0.013700 0.018902 0.164991
v 0.010848 0.059314 0.154410
v -0.010848 0.059314 0.154410
v 0.010858 0.076006 0.144859
v -0.010858 0.076006 0.144859
v -0.007641 0.059395 0.177776
v 0.007641 0.059395 0.177776
v 0.000000 0.038036 0.186214
v 0.007330 0.038036 0.186214
v -0.007330 0.038036 0.186214
v -0.012200 0.043853 0.156931
v 0.012200 0.043853 0.156931
v -0.079790 0.120814 0.031121
v 0.079790 0.120814 0.031121
v -0.052683 0.029172 0.125903
v 0.052683 0.029172 0.125903
v -0.064058 0.155542 0.116042
v 0.064058 0.155542 0.116042
v 0.045854 0.160927 0.137980
v -0.045854 0.160927 0.137980
v 0.065905 0.173353 0.069589
v -0.065905 0.173353 0.069589
v 0.078330 0.115364 0.076884
v -0.078330 0.115364 0.076884
v -0.076776 0.144517 0.067717
v 0.076776 0.144517 0.067717
v 0.049572 0.192015 0.092344
v -0.049572 0.192015 0.092344
v 0.079362 0.075543 0.081139
v -0.079362 0.075543 0.081139
v 0.078832 0.060982 0.086303
v -0.078832 0.060982 0.086303
v -0.022107 0.083670 -0.049718
v -0.000000 0.081878 -0.052895
v -0.073108 0.140244 0.000595
v 0.073108 0.140244 0.000595
v 0.074924 0.155151 0.022804
v -0.074924 0.155151 0.022804
v -0.064064 0.120814 -0.022744
v 0.064064 0.120814 -0.022744
v 0.071387 0.165937 0.047682
v -0.071387 0.165937 0.047682
v -0.062086 0.151533 -0.026389
v 0.062086 0.151533 -0.026389
v -0.055882 0.124032 -0.039720
v 0.055882 0.124032 -0.039720
v -0.000000 0.198565 -0.036219
v -0.031497 0.196821 -0.020069
v 0.031497 0.196821 -0.020069
v -0.057587 0.176979 -0.028920
v 0.057587 0.176979 -0.028920
v 0.038742 0.015816 0.134996
v -0.038742 0.015816 0.134996
v 0.000000 0.013947 0.165061
v -0.013700 0.018902 0.164991
v -0.012320 -0.020975 0.149155
v 0.000000 0.008221 0.166130
v 0.000000 -0.020961 0.149238
v -0.011339 0.010687 0.166084
v 0.011339 0.010687 0.166084
v 0.000000 -0.013593 0.158302
v 0.000000 0.213081 0.099261
v 0.030352 0.208801 0.051586
v -0.030352 0.208801 0.051586
v -0.057418 -0.017019 0.050840
v -0.023785 -0.039756 0.141149
v 0.060037 0.064807 -0.010697
v 0.022107 0.056643 -0.040808
v -0.044807 0.059556 -0.035925
v 0.044807 0.059556 -0.035925
v 0.022107 0.083670 -0.049718
v -0.044807 0.086583 -0.044835
v 0.044807 0.086583 -0.044835
v 0.073365 0.030419 0.047429
v 0.057418 -0.017019 0.050840
v 0.023785 -0.039756 0.141149
v -0.073365 0.030419 0.047429
v -0.057418 -0.017019 0.050840
v -0.023785 -0.039756 0.141149
v -0.060037 0.064807 -0.010697
v -0.022107 0.056643 -0.040808
v -0.000000 0.054851 -0.043986
v 0.036073 0.013047 -0.029839
v -0.000000 0.016701 -0.035229
v -0.036073 0.013047 -0.029839
v 0.000000 -0.038729 0.072766
v 0.045934 -0.014884 0.050145
v -0.045934 -0.014884 0.050145
v 0.000000 -0.036279 0.015970
v 0.028858 0.009168 -0.020274
v -0.000000 0.012092 -0.024586
v -0.028858 0.009168 -0.020274
vn -0.0000 0.9796 -0.2011
vn 0.7589 0.6381 -0.1299
vn 0.5368 0.2786 -0.7964
vn 0.5536 0.6372 0.5362
vn -0.0000 0.7772 0.6292
vn 0.5927 0.0604 0.8031
vn -0.0000 0.2462 -0.9692
vn -0.7589 0.6381 -0.1299
vn -0.5368 0.2786 -0.7964
vn -0.5536 0.6372 0.5362
vn -0.9722 0.1063 0.2085
vn -0.5927 0.0604 0.8031
vn 0.9189 -0.3440 0.1929
vn 0.9722 0.1063 0.2085
vn 0.9346 0.0542 0.3515
vn -0.9346 0.0542 0.3515
vn 0.5558 -0.3631 0.7479
vn 0.8575 -0.3271 0.3971
vn -0.8575 -0.3271 0.3971
vn -0.6807 0.2118 0.7012
vn 0.6807 0.2118 0.7012
vn -0.0000 0.1998 0.9798
vn -0.0000 0.2361 0.9717
vn -0.0000 0.3914 0.9202
vn 0.1273 0.1540 0.9798
vn -0.1273 0.1540 0.9798
vn 0.3309 0.3492 0.8767
vn -0.3309 0.3492 0.8767
vn 0.4906 0.1312 0.8615
vn -0.4906 0.1312 0.8615
vn 0.9005 -0.1621 0.4035
vn -0.9005 -0.1621 0.4035
vn 0.7155 -0.1221 0.6878
vn -0.7155 -0.1221 0.6878
vn -0.0000 -0.4010 0.9161
vn 0.2786 -0.2993 0.9126
vn 0.3962 0.0813 0.9145
vn 0.2444 0.3632 0.8991
vn -0.2444 0.3632 0.8991
vn 0.2884 0.4690 0.8347
vn -0.2884 0.4690 0.8347
vn -0.0062 0.3297 0.9441
vn 0.0062 0.3297 0.9441
vn -0.0000 0.3674 0.9301
vn -0.3455 0.2319 0.9093
vn 0.3455 0.2319 0.9093
vn -0.9921 -0.0031 -0.1257
vn 0.9921 -0.0031 -0.1257
vn -0.7084 -0.2368 0.6649
vn 0.7084 -0.2368 0.6649
vn -0.8782 0.3321 0.3441
vn 0.8782 0.3321 0.3441
vn 0.6121 0.3560 0.7061
vn -0.6121 0.3560 0.7061
vn 0.8844 0.4378 0.1615
vn -0.8844 0.4378 0.1615
vn 0.9948 0.0558 0.0853
vn -0.9948 0.0558 0.0853
vn -0.9732 0.2059 0.1022
vn 0.9732 0.2059 0.1022
vn 0.6740 0.7032 0.2263
vn -0.6740 0.7032 0.2263
vn 0.9993 -0.0175 0.0323
vn -0.9993 -0.0175 0.0323
vn 0.9948 -0.0948 0.0364
vn -0.9948 -0.0948 0.0364
vn -0.2011 -0.2157 -0.9555
vn -0.0000 -0.2341 -0.9722
vn -0.9612 0.0646 -0.2682
vn 0.9612 0.0646 -0.2682
vn 0.9739 0.2056 -0.0962
vn -0.9739 0.2056 -0.0962
vn -0.9193 -0.0933 -0.3823
vn 0.9193 -0.0933 -0.3823
vn 0.9436 0.3248 0.0642
vn -0.9436 0.3248 0.0642
vn -0.9165 0.1001 -0.3873
vn 0.9165 0.1001 -0.3873
vn -0.8025 -0.0794 -0.5913
vn 0.8025 -0.0794 -0.5913
vn -0.0000 0.7782 -0.6281
vn -0.3833 0.8081 -0.4473
vn 0.3833 0.8081 -0.4473
vn -0.7400 0.4932 -0.4574
vn 0.7400 0.4932 -0.4574
vn 0.7468 -0.1363 0.6509
vn -0.7468 -0.1363 0.6509
vn -0.0000 0.1429 0.9897
vn -0.3962 0.0813 0.9145
vn -0.2786 -0.2993 0.9126
vn -0.0000 0.1835 0.9830
vn -0.0000 -0.4823 0.8760
vn -0.3262 0.0382 0.9445
vn 0.3262 0.0382 0.9445
vn -0.0000 -0.5698 0.8218
vn -0.0000 0.9661 0.2583
vn 0.3968 0.9149 0.0748
vn -0.3968 0.9149 0.0748
vn -0.9189 -0.3440 0.1929
vn -0.5558 -0.3631 0.7479
vn 0.9044 -0.1843 -0.3848
vn 0.1885 -0.2508 -0.9495
vn -0.6179 -0.2344 -0.7505
vn 0.6179 -0.2344 -0.7505
vn 0.2011 -0.2157 -0.9555
vn -0.5630 -0.1927 -0.8037
vn 0.5630 -0.1927 -0.8037
vn 0.9578 -0.2575 -0.1274
vn 0.3435 -0.8300 -0.4394
vn 0.1154 -0.9918 -0.0550
vn -0.9578 -0.2575 -0.1274
vn -0.3435 -0.8300 -0.4394
vn -0.1154 -0.9918 -0.0550
vn -0.9044 -0.1843 -0.3848
vn -0.1885 -0.2508 -0.9495
vn -0.0000 -0.2676 -0.9635
vn 0.4350 -0.5933 -0.6773
vn -0.0000 -0.5964 -0.8027
vn -0.4350 -0.5933 -0.6773
vn -0.0000 -0.9932 -0.1166
vn 0.1073 -0.8558 -0.5061
vn -0.1073 -0.8558 -0.5061
vn -0.0000 -0.9197 -0.3926
vn 0.1084 -0.8779 -0.4664
vn -0.0000 -0.8169 -0.5767
vn -0.1084 -0.8779 -0.4664
s 1
f 60//58 66//64 11//11
f 70//68 7//7 107//105
f 107//105 7//7 3//3
f 87//85 3//3 85//83
f 103//101 50//48 110//108
f 109//107 3//3 82//80
f 68//66 113//111 32//32
f 59//57 62//60 14//14
f 83//81 1//1 85//83
f 69//67 7//7 70//68
f 9//9 7//7 69//67
f 8//8 1//1 84//82
f 116//114 113//111 49//47
f 113//111 101//99 19//19
f 98//96 64//62 10//10
f 16//16 11//11 66//64
f 83//81 84//82 1//1
f 57//55 62//60 77//75
f 61//59 11//11 53//51
f 18//18 13//13 110//108
f 67//65 110//108 65//63
f 31//31 29//29 6//6
f 21//21 15//15 14//14
f 16//16 20//20 11//11
f 89//87 12//12 51//49
f 17//17 13//13 18//18
f 33//33 17//17 18//18
f 18//18 110//108 31//31
f 101//99 102//100 19//19
f 32//32 113//111 19//19
f 54//52 4//4 55//53
f 30//30 16//16 32//32
f 53//51 11//11 20//20
f 55//53 4//4 24//24
f 5//5 24//24 4//4
f 24//24 10//10 56//54
f 26//26 24//24 20//20
f 10//10 24//24 5//5
f 25//25 21//21 24//24
f 26//26 22//22 24//24
f 22//22 25//25 24//24
f 27//27 40//40 6//6
f 28//28 12//12 41//41
f 88//86 6//6 37//37
f 94//92 92//90 35//35
f 102//100 92//90 34//34
f 6//6 29//29 27//27
f 29//29 31//31 15//15
f 12//12 28//28 30//30
f 52//50 18//18 31//31
f 67//65 15//15 31//31
f 32//32 19//19 51//49
f 32//32 12//12 30//30
f 91//89 12//12 89//87
f 102//100 34//34 19//19
f 40//40 38//38 6//6
f 17//17 33//33 36//36
f 17//17 36//36 35//35
f 92//90 102//100 35//35
f 91//89 23//23 47//45
f 90//88 37//37 23//23
f 90//88 23//23 91//89
f 36//36 94//92 35//35
f 37//37 6//6 48//46
f 38//38 23//23 48//46
f 39//39 12//12 47//45
f 39//39 41//41 12//12
f 25//25 22//22 43//43
f 43//43 22//22 42//42
f 26//26 42//42 22//22
f 46//44 44//44 42//42
f 45//44 43//43 44//44
f 43//43 42//42 44//44
f 23//23 38//38 39//39
f 39//39 38//38 40//40 41//41
f 23//23 39//39 47//45
f 12//12 91//89 47//45
f 6//6 38//38 48//46
f 23//23 37//37 48//46
f 61//59 60//58 11//11
f 65//63 59//57 14//14
f 75//73 116//114 71//69
f 74//72 8//8 71//69
f 50//48 103//101 72//70
f 2//2 72//70 80//78
f 12//12 32//32 51//49
f 6//6 52//50 31//31
f 53//51 20//20 56//54
f 64//62 8//8 58//56
f 14//14 54//52 21//21
f 4//4 54//52 57//55
f 21//21 54//52 55//53
f 21//21 55//53 24//24
f 10//10 53//51 56//54
f 20//20 24//24 56//54
f 63//61 4//4 57//55
f 53//51 10//10 58//56
f 49//47 60//58 61//59
f 78//76 61//59 58//56
f 73//71 2//2 77//75
f 54//52 14//14 62//60
f 2//2 63//61 57//55
f 2//2 1//1 99//97
f 10//10 64//62 58//56
f 8//8 64//62 100//98
f 49//47 113//111 66//64
f 50//48 59//57 65//63
f 14//14 15//15 65//63
f 68//66 16//16 66//64
f 110//108 50//48 65//63
f 60//58 49//47 66//64
f 57//55 54//52 62//60
f 58//56 61//59 53//51
f 74//72 49//47 61//59
f 59//57 50//48 62//60
f 15//15 67//65 65//63
f 110//108 67//65 31//31
f 113//111 68//66 66//64
f 16//16 68//66 32//32
f 108//106 9//9 69//67
f 107//105 3//3 109//107
f 108//106 116//114 75//73
f 116//114 49//47 71//69
f 86//84 9//9 79//77
f 73//71 50//48 72//70
f 82//80 3//3 80//78
f 2//2 73//71 72//70
f 50//48 73//71 62//60
f 49//47 74//72 71//69
f 74//72 61//59 78//76
f 75//73 71//69 79//77
f 108//106 75//73 81//79
f 103//101 76//74 72//70
f 103//101 109//107 76//74
f 62//60 73//71 77//75
f 2//2 57//55 77//75
f 8//8 74//72 78//76
f 8//8 78//76 58//56
f 81//79 75//73 79//77
f 71//69 8//8 79//77
f 72//70 76//74 80//78
f 87//85 2//2 80//78
f 9//9 81//79 79//77
f 9//9 108//106 81//79
f 76//74 82//80 80//78
f 76//74 109//107 82//80
f 9//9 84//82 83//81
f 86//84 8//8 84//82
f 83//81 85//83 3//3
f 1//1 2//2 85//83
f 7//7 83//81 3//3
f 7//7 9//9 83//81
f 9//9 86//84 84//82
f 8//8 86//84 79//77
f 2//2 87//85 85//83
f 3//3 87//85 80//78
f 35//35 102//100 17//17
f 88//86 18//18 52//50
f 6//6 88//86 52//50
f 89//87 51//49 19//19
f 90//88 95//93 93//91
f 96//94 90//88 93//91
f 34//34 92//90 97//95
f 97//95 92//90 94//92
f 90//88 91//89 95//93
f 37//37 90//88 96//94
f 37//37 96//94 33//33
f 91//89 34//34 95//93
f 36//36 97//95 94//92
f 33//33 97//95 36//36
f 37//37 33//33 88//86
f 91//89 89//87 34//34
f 18//18 88//86 33//33
f 19//19 34//34 89//87
f 4//4 63//61 98//96
f 98//96 1//1 100//98
f 99//97 1//1 98//96
f 5//5 4//4 98//96
f 5//5 98//96 10//10
f 63//61 99//97 98//96
f 63//61 2//2 99//97
f 64//62 98//96 100//98
f 1//1 8//8 100//98
f 116//114 108//106 105//103
f 103//101 106//104 109//107
f 107//105 104//102 118//116
f 106//104 104//102 107//105
f 109//107 106//104 107//105
f 70//68 107//105 118//116
f 69//67 70//68 118//116
f 118//116 117//115 69//67
f 117//115 105//103 69//67
f 69//67 105//103 108//106
f 122//120 112//110 115//113
f 112//110 122//120 111//109
f 115//113 114//112 122//120
f 124//122 122//120 114//112
f 123//121 111//109 122//120
f 111//109 119//117 110//108
f 110//108 119//117 103//101
f 106//104 103//101 119//117
f 106//104 119//117 104//102
f 104//102 119//117 120//118
f 120//118 118//116 104//102
f 118//116 120//118 117//115
f 121//119 117//115 120//118
f 105//103 117//115 121//119
f 105//103 121//119 116//114
f 116//114 121//119 113//111
f 114//112 113//111 121//119
f 124//122 125//123 122//120
f 122//120 125//123 123//121
f 125//123 126//124 123//121
f 126//124 125//123 127//125
f 127//125 125//123 128//126
f 125//123 124//122 128//126
f 126//124 127//125 120//118
f 120//118 127//125 128//126
f 124//122 114//112 121//119
f 123//121 126//124 119//117
f 128//126 124//122 121//119
f 111//109 123//121 119//117
f 119//117 126//124 120//118
f 121//119 120//118 128//126
g UnderBrow_UnderBrow
v -0.075784 0.085675 0.107161
v -0.057495 0.106195 0.155485
v -0.008940 0.103356 0.163473
v -0.020409 0.084852 0.134511
v -0.051527 0.086463 0.129275
v -0.010858 0.076006 0.144859
v -0.034770 0.093117 0.142633
v 0.075784 0.085675 0.107161
v 0.057495 0.106195 0.155485
v 0.008940 0.103356 0.163473
v 0.020409 0.084852 0.134511
v 0.051527 0.086463 0.129275
v 0.010858 0.076006 0.144859
v 0.034770 0.093117 0.142633
vn -0.4166 -0.7693 0.4843
vn -0.2183 -0.8035 0.5538
vn -0.3675 -0.7109 0.5997
vn -0.4235 -0.6771 0.6018
vn -0.2940 -0.7946 0.5312
vn -0.8136 -0.2870 0.5056
vn -0.1400 -0.8070 0.5737
vn 0.4166 -0.7693 0.4843
vn 0.2183 -0.8035 0.5538
vn 0.3675 -0.7109 0.5997
vn 0.4235 -0.6771 0.6018
vn 0.2940 -0.7946 0.5312
vn 0.8136 -0.2870 0.5056
vn 0.1400 -0.8070 0.5737
s 1
f 131//129 130//128 135//133
f 135//133 130//128 133//131
f 130//128 129//127 133//131
f 134//132 131//129 132//130
f 132//130 135//133 133//131
f 132//130 131//129 135//133
f 136//134 137//135 140//138
f 138//136 139//137 142//140
f 140//138 137//135 142//140
f 139//137 138//136 141//139
f 139//137 140//138 142//140
f 137//135 138//136 142//140
g Lips_Lips
v 0.029053 -0.000984 0.146248
v -0.029053 -0.000984 0.146248
v 0.000000 0.008221 0.166130
v -0.011339 0.010687 0.166084
v 0.011339 0.010687 0.166084
v 0.000000 -0.013593 0.158302
v 0.000000 -0.002062 0.154923
v 0.000000 0.001638 0.156507
vn 0.2974 -0.4495 0.8423
vn -0.2974 -0.4495 0.8423
vn -0.0000 -0.7368 0.6761
vn -0.1945 -0.7383 0.6458
vn 0.1945 -0.7383 0.6458
vn -0.0000 0.1170 0.9931
vn -0.0000 -0.7541 0.6568
s 1
f 146//144 144//142 149//147
f 146//144 149//147 145//143
f 143//141 147//145 149//147
f 147//145 145//143 149//147
f 148//146 143//141 150//146
f 144//142 148//146 150//146
g UnderNose_UnderNose
v 0.000000 0.038036 0.186214
v 0.000000 0.021043 0.144176
v 0.007330 0.038036 0.186214
v -0.007330 0.038036 0.186214
v 0.014270 0.029079 0.149730
v -0.014270 0.029079 0.149730
vn -0.0000 -0.9271 0.3748
vn -0.0000 -0.9468 0.3219
vn 0.0807 -0.9289 0.3614
vn -0.0807 -0.9289 0.3614
vn 0.3822 -0.8780 0.2883
vn -0.3822 -0.8780 0.2883
s 1
f 152//149 151//148 154//151
f 153//150 151//148 152//149
f 155//152 153//150 152//149
f 156//153 152//149 154//151
g NoseSides_NoseSides
v -0.008940 0.103356 0.163473
v -0.010858 0.076006 0.144859
v -0.007641 0.059395 0.177776
v -0.007330 0.038036 0.186214
v -0.014270 0.029079 0.149730
v 0.008940 0.103356 0.163473
v 0.010858 0.076006 0.144859
v 0.007641 0.059395 0.177776
v 0.007330 0.038036 0.186214
v 0.014270 0.029079 0.149730
vn -0.9951 0.0027 0.0986
vn -0.9926 0.0372 0.1158
vn -0.9884 0.0544 0.1418
vn -0.9833 0.0543 0.1737
vn -0.9854 0.0734 0.1536
vn 0.9951 0.0027 0.0986
vn 0.9926 0.0372 0.1158
vn 0.9884 0.0544 0.1418
vn 0.9833 0.0543 0.1737
vn 0.9854 0.0734 0.1536
s 1
f 161//158 159//156 158//155
f 161//158 160//157 159//156
f 157//154 158//155 159//156
f 166//163 163//160 164//161
f 163//160 162//159 164//161
f 166//163 164//161 165//162
